<svg preserveAspectRatio="none" overflow="visible" style="display: block;" width="32" height="32" viewBox="0 0 32 32" fill="none" xmlns="http://www.w3.org/2000/svg">
<g id="SVG">
<path id="Vector" d="M12 2.66667H20C20.7359 2.66667 21.3333 3.26411 21.3333 4V6.66667C21.3333 7.40255 20.7359 8 20 8H12C11.2641 8 10.6667 7.40255 10.6667 6.66667V4C10.6667 3.26411 11.2641 2.66667 12 2.66667V2.66667" stroke="#F97316" stroke-width="2.66667" stroke-linecap="round" stroke-linejoin="round"/>
<path id="Vector_2" d="M21.3333 5.33333H24C25.4718 5.33333 26.6667 6.52823 26.6667 8V26.6667C26.6667 28.1384 25.4718 29.3333 24 29.3333H8C6.52823 29.3333 5.33333 28.1384 5.33333 26.6667V8C5.33333 6.52823 6.52823 5.33333 8 5.33333H10.6667" stroke="#F97316" stroke-width="2.66667" stroke-linecap="round" stroke-linejoin="round"/>
<path id="Vector_3" d="M12 18.6667L14.6667 21.3333L20 16" stroke="#F97316" stroke-width="2.66667" stroke-linecap="round" stroke-linejoin="round"/>
</g>
</svg>
