<svg preserveAspectRatio="none" overflow="visible" style="display: block;" width="183" height="69" viewBox="0 0 183 69" fill="none" xmlns="http://www.w3.org/2000/svg">
<g id="avanade-logo-color 1">
<path id="Vector" fill-rule="evenodd" clip-rule="evenodd" d="M71.0453 43.6253C70.4051 43.8037 69.6753 43.892 68.8581 43.892C66.7945 43.892 65.7635 43.1448 65.7635 41.6501C65.7635 40.0848 66.9014 39.3015 69.1779 39.3015C70.1023 39.3015 70.725 39.3551 71.0453 39.4619V43.6253ZM68.1641 30.8146C67.2747 30.8146 66.4116 30.8946 65.5766 31.0547C64.7402 31.215 64.0733 31.4377 63.5756 31.722L63.8423 34.2306C64.5896 34.0173 65.2562 33.8663 65.8432 33.7771C66.4299 33.6888 67.0254 33.6435 67.6305 33.6435C69.9065 33.6435 71.0451 34.516 71.0451 36.2589V36.8462C70.5116 36.7394 69.7644 36.6862 68.8046 36.6862C66.8119 36.6862 65.2381 37.1316 64.0828 38.0207C62.9265 38.9105 62.3487 40.1382 62.3487 41.7033C62.3487 44.906 64.5364 46.5074 68.9111 46.5074C70.6891 46.5074 72.539 46.2405 74.4596 45.7065V36.5258C74.4596 32.7189 72.3605 30.8146 68.1641 30.8146Z" fill="white"/>
<path id="Vector_2" fill-rule="evenodd" clip-rule="evenodd" d="M76.0071 31.1883H79.795L83.4766 42.7177L87.2111 31.1883H90.8392L85.1837 46.1337H81.6621L76.0071 31.1883Z" fill="white"/>
<path id="Vector_3" fill-rule="evenodd" clip-rule="evenodd" d="M100.335 43.6253C99.695 43.8037 98.9656 43.892 98.1479 43.892C96.0849 43.892 95.0533 43.1448 95.0533 41.6501C95.0533 40.0848 96.1912 39.3015 98.4681 39.3015C99.3923 39.3015 100.015 39.3551 100.335 39.4619V43.6253ZM97.4558 30.8146C96.5664 30.8146 95.7035 30.8946 94.8683 31.0547C94.0324 31.215 93.3652 31.4377 92.8673 31.722L93.1345 34.2306C93.8813 34.0173 94.548 33.8663 95.135 33.7771C95.722 33.6888 96.3173 33.6435 96.9224 33.6435C99.1984 33.6435 100.337 34.516 100.337 36.2589V36.8462C99.8035 36.7394 99.0565 36.6862 98.0964 36.6862C96.1038 36.6862 94.5298 37.1316 93.3744 38.0207C92.2182 38.9105 91.6405 40.1382 91.6405 41.7033C91.6405 44.906 93.8282 46.5074 98.2028 46.5074C99.9809 46.5074 101.831 46.2405 103.751 45.7065V36.5258C103.751 32.7189 101.652 30.8146 97.4558 30.8146Z" fill="white"/>
<path id="Vector_4" fill-rule="evenodd" clip-rule="evenodd" d="M116.959 37.3271C116.959 35.9753 116.7 35.0409 116.185 34.5248C115.669 34.0096 114.753 33.751 113.438 33.751C113.117 33.751 112.735 33.7866 112.29 33.8575C111.845 33.9295 111.428 34.0178 111.036 34.1243V46.1342H107.569V31.936C108.457 31.5808 109.471 31.3048 110.61 31.1087C111.748 30.9136 112.851 30.8154 113.918 30.8154C118.257 30.8154 120.427 32.7725 120.427 36.6865V46.1342H116.959V37.3271Z" fill="white"/>
<path id="Vector_5" fill-rule="evenodd" clip-rule="evenodd" d="M131.843 43.6253C131.202 43.8037 130.473 43.892 129.655 43.892C127.592 43.892 126.561 43.1448 126.561 41.6501C126.561 40.0848 127.699 39.3015 129.976 39.3015C130.9 39.3015 131.522 39.3551 131.843 39.4619V43.6253ZM128.964 30.8146C128.075 30.8146 127.212 30.8946 126.376 31.0547C125.54 31.215 124.873 31.4377 124.376 31.722L124.643 34.2306C125.39 34.0173 126.056 33.8663 126.643 33.7771C127.23 33.6888 127.825 33.6435 128.43 33.6435C130.706 33.6435 131.845 34.516 131.845 36.2589V36.8462C131.312 36.7394 130.565 36.6862 129.605 36.6862C127.612 36.6862 126.038 37.1316 124.883 38.0207C123.726 38.9105 123.149 40.1382 123.149 41.7033C123.149 44.906 125.336 46.5074 129.711 46.5074C131.489 46.5074 133.339 46.2405 135.26 45.7065V36.5258C135.26 32.7189 133.16 30.8146 128.964 30.8146Z" fill="white"/>
<path id="Vector_6" fill-rule="evenodd" clip-rule="evenodd" d="M148.169 43.4117C147.777 43.5542 147.066 43.6253 146.035 43.6253C143.083 43.6253 141.607 42.0063 141.607 38.7678C141.607 37.1314 141.989 35.8679 142.754 34.9781C143.518 34.089 144.595 33.6436 145.982 33.6436C146.836 33.6436 147.564 33.7686 148.169 34.0173V43.4117ZM148.171 25.424V31.1352C147.531 30.9219 146.694 30.8151 145.663 30.8151C143.386 30.8151 141.537 31.5537 140.114 33.0301C138.691 34.5069 137.98 36.438 137.98 38.8216C137.98 41.3125 138.674 43.2167 140.061 44.5328C141.448 45.8494 143.475 46.5074 146.143 46.5074C147.815 46.5074 149.646 46.2407 151.638 45.707V25.424H148.171Z" fill="white"/>
<path id="Vector_7" fill-rule="evenodd" clip-rule="evenodd" d="M157.987 37.1131C158.095 35.9746 158.44 35.0848 159.027 34.4443C159.615 33.8039 160.369 33.4833 161.295 33.4833C162.219 33.4833 162.967 33.8039 163.536 34.4443C164.104 35.0848 164.389 35.9746 164.389 37.1131H157.987ZM167.75 37.8603C167.75 35.6902 167.181 33.9728 166.044 32.7093C164.905 31.4469 163.356 30.8146 161.401 30.8146C159.268 30.8146 157.568 31.5269 156.306 32.9497C155.043 34.3731 154.412 36.3125 154.412 38.7676C154.412 41.2231 155.088 43.127 156.44 44.4791C157.791 45.8318 159.712 46.5074 162.202 46.5074C163.837 46.5074 165.385 46.222 166.843 45.6532L166.469 43.0378C165.224 43.4647 163.89 43.6783 162.468 43.6783C159.551 43.6783 158.057 42.3622 157.987 39.7285H167.75V37.8603Z" fill="white"/>
<path id="Vector_8" d="M25.4653 24.7959C24.2861 27.0602 23.3691 28.898 22.6158 30.2433C21.8954 31.5888 21.2077 32.7046 20.618 33.5578C19.9958 34.4111 19.3736 35.1001 18.6857 35.6253C17.998 36.1504 17.1465 36.7411 16.0984 37.3974L15.5089 36.5114C16.1639 36.0191 16.7534 35.5268 17.2774 35.0674C17.8015 34.6079 18.3582 33.9188 18.9805 33.0656C19.6027 32.2123 20.2906 31.0966 21.0766 29.6528C21.8626 28.2415 22.8451 26.3055 24.0241 23.9098C24.8756 22.1705 25.6618 20.7267 26.415 19.6109C27.1683 18.4951 27.8889 17.6091 28.6093 16.9856C29.297 16.3293 29.9849 15.9026 30.6398 15.6401C31.2949 15.3776 31.9499 15.2791 32.6377 15.3119C33.2927 15.3448 33.9151 15.5088 34.5701 15.8041C35.1923 16.0996 35.9129 16.6902 36.6333 17.5434C37.3866 18.3967 38.2381 19.6437 39.1551 21.2517C40.0722 22.8597 41.1858 24.9927 42.463 27.618C43.2818 29.3245 44.0678 30.7356 44.7884 31.8843C45.509 33.0328 46.2622 33.9516 47.0482 34.7064C47.8342 35.4611 48.653 36.0519 49.57 36.5114C50.487 36.9707 51.5023 37.3646 52.6813 37.7254L53.4019 38.9725C51.9936 38.8084 50.7163 38.5459 49.6029 38.1521C48.4892 37.7584 47.474 37.1349 46.5242 36.3144C45.5744 35.4941 44.6573 34.4439 43.7731 33.1641C42.8888 31.8843 41.9718 30.2433 41.022 28.3073C39.843 25.9445 38.8604 24.0412 38.0416 22.5644C37.2228 21.0877 36.5024 19.9391 35.88 19.1186C35.2578 18.2982 34.6683 17.7404 34.177 17.4451C33.6858 17.1496 33.1618 16.9856 32.6705 16.9856C32.1137 16.9528 31.5897 17.0841 31.0657 17.3137C30.5416 17.5434 30.0176 17.9701 29.4281 18.5936C28.8713 19.2171 28.2491 20.0047 27.6267 21.0219C26.9063 22.0065 26.2186 23.2862 25.4653 24.7959Z" fill="url(#paint0_linear_0_18)"/>
<path id="Vector_9" d="M42.7909 39.7269C44.5267 39.7926 46.2297 39.6941 47.9 39.4644C49.5703 39.2347 51.0769 38.8737 52.3543 38.4143L52.518 39.3331C50.1927 40.8099 46.9176 41.4991 42.7253 41.3349C40.8259 41.2694 39.1883 41.0396 37.8128 40.6786C36.4372 40.3176 35.2255 39.8582 34.1447 39.3331C33.3586 38.9721 32.5726 38.5784 31.852 38.1846C31.1316 37.7908 30.3783 37.4298 29.6249 37.0688C28.8716 36.7078 28.0857 36.4453 27.2997 36.2156C26.5136 35.9859 25.6621 35.8546 24.7777 35.8218C23.4678 35.789 22.125 35.8874 20.7822 36.1171C19.4394 36.3469 18.0965 36.7406 16.7866 37.2329L16.1971 36.5438L17.2779 36.0188C18.3258 35.3953 19.5048 34.9358 20.8805 34.6076C22.2232 34.2795 23.566 34.1481 24.8433 34.181C25.8585 34.2138 26.8084 34.3451 27.6599 34.5748C28.5114 34.8045 29.3302 35.0998 30.0835 35.4608C30.8368 35.8218 31.6227 36.1828 32.376 36.6094C33.1293 37.0361 33.9481 37.4298 34.7669 37.7908C35.8477 38.2831 36.9612 38.6769 38.173 39.0378C39.4503 39.4644 40.9897 39.6614 42.7909 39.7269Z" fill="url(#paint1_linear_0_18)"/>
<path id="Vector_10" d="M45.2797 27.2238C44.6573 27.191 44.1007 27.3551 43.5438 27.6505C42.987 27.9458 42.3648 28.5365 41.6115 29.357C40.891 30.1773 40.0395 31.3258 39.0569 32.7698C38.0745 34.2138 36.8953 36.0843 35.4543 38.4142C33.522 41.5647 31.7206 43.829 30.0503 45.2072C28.38 46.5855 26.6443 47.2747 24.8103 47.209C22.878 47.1433 21.0439 46.159 19.3736 44.3212C17.6704 42.4507 16.3932 39.8582 15.5089 36.5766L17.1136 36.9046C17.998 39.5299 19.1443 41.6302 20.5198 43.1727C21.8954 44.7478 23.3364 45.5355 24.8756 45.601C26.284 45.6667 27.7251 45.0432 29.1988 43.7962C30.6398 42.5492 32.2448 40.5144 34.0133 37.6594C35.5854 35.1326 36.9281 33.0651 38.0089 31.49C39.0897 29.9148 40.0395 28.6678 40.8254 27.8145C41.6442 26.9285 42.3975 26.3378 43.0854 26.0425C43.7731 25.7472 44.5264 25.6159 45.3452 25.6487C47.1793 25.7143 48.8167 26.7972 50.2251 28.9303C51.6334 31.0633 52.9106 34.3121 54.0243 38.6767L52.2556 37.9549C51.1748 34.3451 50.0613 31.6541 48.915 29.9476C47.7688 28.1427 46.5569 27.2567 45.2797 27.2238Z" fill="url(#paint2_linear_0_18)"/>
<path id="Vector_11" d="M39.0578 51.8695C39.9093 51.9023 40.7608 51.607 41.5796 51.0162C42.4311 50.4255 43.4792 49.277 44.7565 47.5705C45.7391 46.2907 46.5579 45.2077 47.2129 44.3545C47.868 43.5014 48.4575 42.7466 49.0141 42.1231C49.5709 41.4666 50.1605 40.8431 50.75 40.2526C51.3395 39.6618 52.0928 38.9398 52.9771 38.0866L53.9924 38.6445C53.1735 39.5633 52.4858 40.3509 51.9618 41.0073C51.405 41.6636 50.881 42.3199 50.3242 43.0091C49.8002 43.6982 49.2107 44.4529 48.5557 45.3062C47.9006 46.1594 47.0818 47.2424 46.0993 48.555C44.7565 50.3927 43.5448 51.6725 42.464 52.4602C41.4159 53.215 40.2369 53.576 38.9923 53.5431C38.3046 53.5103 37.6824 53.4118 37.1582 53.1821C36.6016 52.9853 35.9792 52.5915 35.2259 52.0008C34.5055 51.41 33.6539 50.5897 32.6714 49.5067C31.6889 48.4237 30.4443 47.0455 28.9378 45.3062C27.7914 43.9936 26.7762 42.9106 25.8592 42.0246C24.9421 41.1386 24.0251 40.4166 23.1081 39.8916C22.191 39.3336 21.2413 38.9071 20.226 38.6116C19.2106 38.3163 18.0316 38.0866 16.6888 37.9226L17.0819 36.7083C18.4573 36.8396 19.7019 37.0036 20.7827 37.2333C21.8635 37.4631 22.8788 37.8569 23.8613 38.4148C24.811 38.9726 25.7936 39.6946 26.7762 40.5806C27.7588 41.4996 28.8722 42.6481 30.0841 44.0592C31.5906 45.7984 32.8024 47.1439 33.7522 48.194C34.702 49.2113 35.4879 49.999 36.1103 50.5568C36.7325 51.1147 37.2566 51.4757 37.715 51.6398C38.1408 51.771 38.5994 51.8695 39.0578 51.8695Z" fill="url(#paint3_linear_0_18)"/>
</g>
<defs>
<linearGradient id="paint0_linear_0_18" x1="22.4522" y1="45.3951" x2="50.3583" y2="26.1881" gradientUnits="userSpaceOnUse">
<stop offset="0.2" stop-color="white"/>
<stop offset="0.2422" stop-color="white"/>
<stop offset="0.3192" stop-color="white"/>
<stop offset="0.3963" stop-color="white"/>
<stop offset="0.4725" stop-color="white"/>
<stop offset="0.5476" stop-color="white"/>
<stop offset="0.62" stop-color="white"/>
<stop offset="0.6597" stop-color="white"/>
<stop offset="0.7244" stop-color="white"/>
<stop offset="0.8061" stop-color="white"/>
<stop offset="0.9" stop-color="#FF5800"/>
</linearGradient>
<linearGradient id="paint1_linear_0_18" x1="16.2269" y1="41.3933" x2="52.5471" y2="41.3933" gradientUnits="userSpaceOnUse">
<stop offset="0.09" stop-color="white"/>
<stop offset="0.1898" stop-color="white"/>
<stop offset="0.3059" stop-color="white"/>
<stop offset="0.4034" stop-color="white"/>
<stop offset="0.47" stop-color="white"/>
<stop offset="0.5314" stop-color="white"/>
<stop offset="0.6235" stop-color="white"/>
<stop offset="0.7342" stop-color="white"/>
<stop offset="0.82" stop-color="white"/>
</linearGradient>
<linearGradient id="paint2_linear_0_18" x1="9.30402" y1="42.8424" x2="38.4827" y2="62.6572" gradientUnits="userSpaceOnUse">
<stop offset="0.5" stop-color="white"/>
<stop offset="0.64" stop-color="white" stop-opacity="0.99"/>
<stop offset="0.7559" stop-color="white"/>
<stop offset="0.8091" stop-color="white" stop-opacity="0.9955"/>
<stop offset="0.8494" stop-color="white" stop-opacity="0.9968"/>
<stop offset="0.8833" stop-color="white" stop-opacity="0.9978"/>
<stop offset="0.9131" stop-color="white" stop-opacity="0.9988"/>
<stop offset="0.9397" stop-color="white" stop-opacity="0.9997"/>
<stop offset="0.95" stop-color="white"/>
</linearGradient>
<linearGradient id="paint3_linear_0_18" x1="23.5995" y1="54.7957" x2="50.689" y2="36.0698" gradientUnits="userSpaceOnUse">
<stop stop-color="white"/>
<stop offset="0.0624571" stop-color="white"/>
<stop offset="0.1272" stop-color="white"/>
<stop offset="0.1929" stop-color="white"/>
<stop offset="0.259" stop-color="white"/>
<stop offset="0.3" stop-color="white"/>
<stop offset="0.48" stop-color="white"/>
<stop offset="0.91" stop-color="white"/>
</linearGradient>
</defs>
</svg>
